<?xml version="1.0" encoding="utf-8"?>
<!-- Generator: Adobe Illustrator 18.1.1, SVG Export Plug-In . SVG Version: 6.00 Build 0)  -->
<svg version="1.1" id="Layer_1" xmlns="http://www.w3.org/2000/svg" xmlns:xlink="http://www.w3.org/1999/xlink" x="0px" y="0px"
	 viewBox="0 0 40 40" enable-background="new 0 0 40 40" xml:space="preserve">
<g>
	<g>
		<g>
			<g>
				
					<path fill="none" stroke="#000000" stroke-width="1.7291" stroke-linecap="round" stroke-linejoin="round" stroke-miterlimit="10" d="
					M21.8,12.4c0,1.8-1,3-1.9,3.9c-0.7,0.7-1,1-1.9,1c-0.7,0-0.9-0.2-1.5-0.7c-1.1-0.8-2.3-2.1-2.3-4.2l-0.3,0
					c-0.4,0.1-0.5-0.3-0.7-1.4c-0.1-0.3-0.2-0.6-0.1-0.9c0-0.3,0.2-0.4,0.3-0.7c0.1-0.4,0.1-0.9,0.1-1.4c0.1-0.4,0.2-0.7,0.3-1.1
					c0.3-0.9,1-1.7,1.9-2.1c0.7-0.3,1.5-0.4,2.3-0.4c1.8,0,3.5,0.9,4.1,2.6c0.1,0.4,0.2,0.8,0.3,1.3c0.1,0.4,0.1,0.9,0.3,1.2
					c0.2,0.5,0.2,0.8,0.1,1.4c-0.2,1.1-0.3,1.5-0.7,1.4L21.8,12.4z"/>
			</g>
			<g>
				
					<path fill="none" stroke="#000000" stroke-width="1.7291" stroke-linecap="round" stroke-linejoin="round" stroke-miterlimit="10" d="
					M18.9,28.1c-2,0-8.3-0.2-11.5-0.6c-0.1-1.8,0.5-3.5,1.4-5.1c1.1-1.7,3.5-1.8,5.3-2.2c0,0,0.8-0.1,1-0.7"/>
			</g>
		</g>
		<g>
			<g>
				<g>
					
						<path fill="none" stroke="#000000" stroke-width="1.7291" stroke-linecap="round" stroke-linejoin="round" stroke-miterlimit="10" d="
						M14.6,5.5c-0.5-1.4-1.9-2-3.3-2c-0.6,0-1.3,0.1-1.9,0.4c-0.7,0.3-1.3,1-1.6,1.7C7.7,5.8,7.7,6.1,7.6,6.4c0,0.3,0,0.8-0.1,1.1
						C7.4,7.8,7.3,7.9,7.2,8.1c0,0.2,0,0.5,0.1,0.8c0.2,0.9,0.2,1.2,0.6,1.2l0.3,0c0,1.7,1,2.8,1.9,3.5c0.5,0.4,0.6,0.5,1.2,0.5
						c0.7,0,1-0.3,1.6-0.8l0.4-0.3"/>
				</g>
				<g>
					
						<path fill="none" stroke="#000000" stroke-width="1.7291" stroke-linecap="round" stroke-linejoin="round" stroke-miterlimit="10" d="
						M8.2,22.7c-1.7,0-2.9-0.2-5.5-0.6c-0.1-3.9,2-4.8,2-4.8l3.5-0.9c0,0,0.6-0.1,0.8-0.7"/>
				</g>
			</g>
			<g>
				<g>
					
						<path fill="none" stroke="#000000" stroke-width="1.7291" stroke-linecap="round" stroke-linejoin="round" stroke-miterlimit="10" d="
						M20.9,5.4c0.5-1.3,1.9-1.9,3.3-1.9c0.6,0,1.3,0.1,1.9,0.4c0.7,0.3,1.3,1,1.6,1.7c0.1,0.3,0.2,0.6,0.2,0.9c0,0.3,0,0.8,0.1,1.1
						c0.1,0.2,0.2,0.3,0.3,0.5c0,0.2,0,0.5-0.1,0.8c-0.2,0.9-0.2,1.2-0.6,1.2l-0.3,0c0,1.7-1,2.8-1.9,3.5c-0.5,0.4-0.6,0.5-1.2,0.5
						c-0.7,0-1-0.3-1.6-0.8l-0.5-0.4"/>
				</g>
				<g>
					
						<path fill="none" stroke="#000000" stroke-width="1.7291" stroke-linecap="round" stroke-linejoin="round" stroke-miterlimit="10" d="
						M33,20c-0.6-3.4-4.5-2-6.2-4.3"/>
				</g>
			</g>
		</g>
	</g>
	<g>
		<g>
			<path fill="#010101" stroke="#010101" stroke-width="0.4252" stroke-miterlimit="10" d="M37.3,27.2l-1.4-0.3
				c-0.1-0.3-0.3-0.7-0.4-1l0.8-1.3c0.3-0.5,0.4-1.1,0-1.5l-0.8-0.8C35.3,22.1,35,22,34.7,22c-0.3,0-0.6,0.1-0.8,0.2L32.7,23
				c-0.3-0.2-0.7-0.3-1-0.4l-0.3-1.4c-0.1-0.5-0.5-1.1-1.2-1.1h-1.1c-0.6,0-1,0.6-1.1,1.1l-0.4,1.4c-0.4,0.1-0.7,0.3-1.1,0.4
				l-1.3-0.8c-0.2-0.2-0.5-0.2-0.8-0.2c-0.3,0-0.6,0.1-0.8,0.3L23,23c-0.4,0.4-0.3,1.1,0,1.5l0.8,1.3c-0.1,0.3-0.3,0.6-0.4,0.9
				L22,27.2c-0.5,0.1-1.1,0.5-1.1,1.2v1.1c0,0.6,0.6,1,1.1,1.1l1.4,0.4c0.1,0.3,0.2,0.6,0.4,0.9L23,33.1c-0.3,0.5-0.4,1.1,0,1.5
				l0.8,0.8c0.2,0.2,0.5,0.3,0.8,0.3c0.3,0,0.6-0.1,0.8-0.2l1.3-0.8c0.3,0.2,0.7,0.3,1.1,0.4l0.4,1.4c0.1,0.5,0.5,1.1,1.1,1.1h1.1
				c0.6,0,1.1-0.6,1.2-1.1l0.3-1.4c0.3-0.1,0.7-0.3,1-0.4l1.2,0.8c0.2,0.2,0.5,0.2,0.8,0.2c0.3,0,0.6-0.1,0.8-0.3l0.8-0.8
				c0.4-0.4,0.3-1.1,0-1.5l-0.8-1.3c0.2-0.3,0.3-0.6,0.4-0.9l1.4-0.4c0.5-0.1,1.1-0.5,1.1-1.1v-1.1C38.4,27.7,37.8,27.3,37.3,27.2z
				 M37.5,29.4c0,0-0.2,0.2-0.4,0.2L35.7,30l-0.5,0.1l-0.2,0.5c-0.1,0.3-0.2,0.5-0.3,0.8l-0.2,0.4l0.2,0.4l0.8,1.3
				c0.1,0.2,0.2,0.4,0.1,0.5l-0.8,0.8c0,0-0.1,0-0.2,0c-0.1,0-0.2,0-0.3-0.1l0,0l0,0l-1.2-0.8l-0.4-0.3l-0.4,0.2
				c-0.3,0.1-0.6,0.3-0.9,0.4l-0.5,0.2l-0.1,0.5l-0.3,1.4l0,0l0,0c0,0.2-0.2,0.4-0.3,0.4h-1.1c0,0-0.2-0.2-0.2-0.4l-0.4-1.4
				l-0.1-0.5l-0.5-0.1c-0.3-0.1-0.6-0.2-0.9-0.4l-0.4-0.2l-0.4,0.3l-1.3,0.8l0,0l0,0c-0.1,0.1-0.2,0.1-0.3,0.1c0,0-0.1,0-0.2,0
				L23.6,34c0,0,0-0.2,0.1-0.5l0.8-1.3l0.2-0.4l-0.2-0.4c-0.1-0.3-0.2-0.5-0.3-0.8l-0.1-0.5L23.6,30l-1.4-0.4
				c-0.3-0.1-0.4-0.2-0.4-0.2v-1.1c0-0.1,0.2-0.3,0.4-0.3l0,0l0,0l1.4-0.3l0.5-0.1l0.2-0.5c0.1-0.3,0.2-0.5,0.3-0.8l0.2-0.4
				l-0.2-0.4l-0.8-1.3c-0.1-0.2-0.2-0.4-0.1-0.5l0.8-0.8c0,0,0.1,0,0.2,0c0.1,0,0.2,0,0.3,0.1l0,0l0,0l1.3,0.8l0.4,0.3l0.4-0.2
				c0.3-0.2,0.6-0.3,0.9-0.4l0.5-0.1l0.1-0.5l0.4-1.4c0.1-0.3,0.2-0.4,0.2-0.4h1.1c0.1,0,0.3,0.2,0.3,0.4l0,0l0,0l0.3,1.4l0.1,0.5
				l0.5,0.2c0.3,0.1,0.6,0.2,0.9,0.4l0.4,0.2l0.4-0.3l1.2-0.8l0,0l0,0c0.1-0.1,0.2-0.1,0.3-0.1c0,0,0.1,0,0.2,0l0.8,0.8
				c0,0,0,0.2-0.1,0.5l-0.8,1.3l-0.3,0.4l0.2,0.4c0.2,0.3,0.3,0.6,0.4,0.9l0.2,0.5l0.5,0.1l1.4,0.3l0,0l0,0c0.2,0,0.4,0.2,0.4,0.3
				L37.5,29.4L37.5,29.4z M29.7,25.3c-1.9,0-3.5,1.6-3.5,3.5s1.6,3.5,3.5,3.5c1.9,0,3.5-1.6,3.5-3.5S31.6,25.3,29.7,25.3z
				 M29.7,31.5c-1.5,0-2.6-1.2-2.6-2.6c0-1.5,1.2-2.6,2.6-2.6c1.5,0,2.6,1.2,2.6,2.6C32.3,30.3,31.1,31.5,29.7,31.5z"/>
		</g>
	</g>
</g>
</svg>
