<?xml version="1.0" encoding="utf-8"?>
<!-- Generator: Adobe Illustrator 18.1.1, SVG Export Plug-In . SVG Version: 6.00 Build 0)  -->
<svg version="1.1" xmlns="http://www.w3.org/2000/svg" xmlns:xlink="http://www.w3.org/1999/xlink" x="0px" y="0px"
	 viewBox="0 0 40 40" enable-background="new 0 0 40 40" xml:space="preserve">
<g id="Layer_1">
	<g>
		
			<rect x="17.501" y="5.363" fill="none" stroke="#000000" stroke-width="2" stroke-linecap="round" stroke-linejoin="round" stroke-miterlimit="10" width="4.997" height="7.701"/>
		<g>
			<path fill="none" stroke="#000000" stroke-width="2" stroke-linecap="round" stroke-linejoin="round" stroke-miterlimit="10" d="
				M13.435,15.701c1.186-0.031,2.36,0.631,2.798,1.739c0.452,1.144,0.185,2.04,0.015,3.235c-0.198,1.358-0.275,2.107-1.36,2.918
				c0,0-1.462,0.942-2.904,0c-1.085-0.811-1.164-1.56-1.358-2.918c-0.173-1.195-0.438-2.092,0.011-3.235
				C11.072,16.332,12.249,15.67,13.435,15.701"/>
		</g>
		
			<line fill="none" stroke="#000000" stroke-width="2" stroke-linecap="round" stroke-linejoin="round" stroke-miterlimit="10" x1="21.188" y1="17.15" x2="32.066" y2="17.15"/>
		
			<line fill="none" stroke="#000000" stroke-width="2" stroke-linecap="round" stroke-linejoin="round" stroke-miterlimit="10" x1="21.188" y1="21.62" x2="28.818" y2="21.62"/>
		<path fill="none" stroke="#000000" stroke-width="2" stroke-linecap="round" stroke-linejoin="round" stroke-miterlimit="10" d="
			M11.438,26.1v0.527c-1.042,0.278-2.572,0.508-3.442,1.07C6.992,28.346,7.01,29.9,6.668,30.862h13.331
			c-0.343-0.962-0.324-2.517-1.326-3.165c-0.873-0.562-2.4-0.792-3.443-1.07V26.1"/>
		<path fill="none" stroke="#000000" stroke-width="2" stroke-linecap="round" stroke-linejoin="round" stroke-miterlimit="10" d="
			M25.706,10.107h8.346c1.575,0,2.853,1.276,2.853,2.853v18.823c0,1.576-1.277,2.854-2.853,2.854H5.949
			c-1.576,0-2.853-1.277-2.853-2.854V12.96c0-1.576,1.277-2.853,2.853-2.853h8.344"/>
	</g>
</g>
<g id="labels" display="none">
</g>
</svg>
